# xmcd
#
# Track frame offsets: 
#        150
#        16237
#        30777
#        50062
#        68470
#        79441
#        92360
#        105816
#        122874
#        140770
#        156288
#
# Disc length: 2395 seconds
#
# Revision: 0
# Processed by: cddbd v1.5.1PL0 Copyright (c) Steve Scherf et al.
# Submitted via: ExactAudioCopy v0.95b3
#
DISCID=8009590b
DTITLE=Lindisfarne - Happy Daze
DYEAR=1974
DGENRE=Country
TTITLE0=Tonight
TTITLE1=In Year Head
TTITLE2=River
TTITLE3=You Put The Laff On Me
TTITLE4=No Need To Tell Me
TTITLE5=Juiced Up To Lose
TTITLE6=Dealer's Choice
TTITLE7=Nellie
TTITLE8=The Man Down There
TTITLE9=Gin And Tonix All Round
TTITLE10=Tomorrow
EXTD=
EXTT0=
EXTT1=
EXTT2=
EXTT3=
EXTT4=
EXTT5=
EXTT6=
EXTT7=
EXTT8=
EXTT9=
EXTT10=
PLAYORDER=
